<mxfile host="app.diagrams.net" modified="2024-07-02T07:53:48.961Z" agent="Mozilla/5.0 (Windows NT 10.0; Win64; x64) AppleWebKit/537.36 (KHTML, like Gecko) Chrome/123.0.0.0 Safari/537.36 OPR/109.0.0.0" version="24.6.4" etag="SphVwPKgvxhEe2mVz63n" type="github">
  <diagram name="Page-1" id="t-wHcaloUUAhS2Y5-q6f">
    <mxGraphModel>
      <root>
        <mxCell id="0" />
        <mxCell id="1" parent="0" />
      </root>
    </mxGraphModel>
  </diagram>
</mxfile>
